<mxfile host="Electron" agent="Mozilla/5.0 (Macintosh; Intel Mac OS X 10_15_7) AppleWebKit/537.36 (KHTML, like Gecko) draw.io/25.0.2 Chrome/128.0.6613.186 Electron/32.2.5 Safari/537.36" version="25.0.2">
  <diagram name="Page-1" id="x5OVkBZsBAx5njldiej8">
    <mxGraphModel dx="1067" dy="831" grid="1" gridSize="10" guides="1" tooltips="1" connect="1" arrows="1" fold="1" page="1" pageScale="1" pageWidth="1169" pageHeight="827" math="0" shadow="0">
      <root>
        <mxCell id="0" />
        <mxCell id="1" parent="0" />
        <mxCell id="4vXi6jlmZL6QnZGHA_IZ-3" value="" style="endArrow=none;html=1;rounded=0;" parent="1" edge="1">
          <mxGeometry width="50" height="50" relative="1" as="geometry">
            <mxPoint x="580" y="818" as="sourcePoint" />
            <mxPoint x="580" y="8" as="targetPoint" />
          </mxGeometry>
        </mxCell>
        <mxCell id="4vXi6jlmZL6QnZGHA_IZ-6" value="&lt;pre&gt;let arr = [&quot;Яблоко&quot;, &quot;Груша&quot;];&lt;br&gt;let [item1, item2] = arr;&lt;br&gt;&lt;/pre&gt;&lt;pre&gt;let [tom, huck] = new Map([[],[]]);&lt;br/&gt;let [tom, huck] = new Set([]);&lt;br&gt;&lt;/pre&gt;" style="rounded=0;whiteSpace=wrap;html=1;align=left;spacingLeft=5;" parent="1" vertex="1">
          <mxGeometry x="20" y="50" width="265" height="80" as="geometry" />
        </mxCell>
        <mxCell id="4vXi6jlmZL6QnZGHA_IZ-8" value="Деструктурирующее присваивание" style="text;html=1;align=center;verticalAlign=middle;whiteSpace=wrap;rounded=0;fontStyle=1;fontSize=14;" parent="1" vertex="1">
          <mxGeometry x="5" width="570" height="30" as="geometry" />
        </mxCell>
        <mxCell id="4vXi6jlmZL6QnZGHA_IZ-9" value="Массива, мапы, сета" style="text;html=1;align=center;verticalAlign=middle;whiteSpace=wrap;rounded=0;fontStyle=1" parent="1" vertex="1">
          <mxGeometry x="20" y="30" width="210" height="20" as="geometry" />
        </mxCell>
        <mxCell id="4vXi6jlmZL6QnZGHA_IZ-13" value="&lt;pre&gt;let arr = [&quot;Яблоко&quot;, &quot;Груша&quot;, &quot;Апельсин&quot;];&lt;br/&gt;&lt;br/&gt;let [apple, , orange] = arr;  // Просто пропуск&lt;br/&gt;let [apple, _, orange] = arr;  // Или _&lt;br/&gt;&lt;br/&gt;console.log(apple);   // Яблоко&lt;br/&gt;console.log(orange);  // Апельсин&lt;br&gt;&lt;/pre&gt;" style="rounded=0;whiteSpace=wrap;html=1;align=left;spacingLeft=5;" parent="1" vertex="1">
          <mxGeometry x="20" y="180" width="355" height="110" as="geometry" />
        </mxCell>
        <mxCell id="4vXi6jlmZL6QnZGHA_IZ-14" value="Пропуск элементов" style="text;html=1;align=center;verticalAlign=middle;whiteSpace=wrap;rounded=0;fontStyle=1" parent="1" vertex="1">
          <mxGeometry x="20" y="150" width="285" height="30" as="geometry" />
        </mxCell>
        <mxCell id="4vXi6jlmZL6QnZGHA_IZ-15" value="&lt;pre&gt;&lt;span class=&quot;pl-k&quot;&gt;let&lt;/span&gt; &lt;span class=&quot;pl-s1&quot;&gt;strings&lt;/span&gt; &lt;span class=&quot;pl-c1&quot;&gt;=&lt;/span&gt; &lt;span class=&quot;pl-k&quot;&gt;new&lt;/span&gt; &lt;span class=&quot;pl-v&quot;&gt;Set&lt;/span&gt;&lt;span class=&quot;pl-kos&quot;&gt;(&lt;/span&gt;&lt;span class=&quot;pl-kos&quot;&gt;[&lt;/span&gt;&lt;span class=&quot;pl-s&quot;&gt;&quot;Johny&quot;&lt;/span&gt;&lt;span class=&quot;pl-kos&quot;&gt;,&lt;/span&gt; &lt;span class=&quot;pl-s&quot;&gt;&quot;Dotsville&quot;&lt;/span&gt;&lt;span class=&quot;pl-kos&quot;&gt;,&lt;/span&gt; &lt;span class=&quot;pl-s&quot;&gt;&quot;Javascript&quot;&lt;/span&gt;&lt;span class=&quot;pl-kos&quot;&gt;]&lt;/span&gt;&lt;span class=&quot;pl-kos&quot;&gt;)&lt;/span&gt;&lt;span class=&quot;pl-kos&quot;&gt;;&lt;/span&gt;&lt;br&gt;&lt;br&gt;&lt;span class=&quot;pl-k&quot;&gt;let&lt;/span&gt; &lt;span class=&quot;pl-s1&quot;&gt;user&lt;/span&gt; &lt;span class=&quot;pl-c1&quot;&gt;=&lt;/span&gt; &lt;span class=&quot;pl-kos&quot;&gt;{&lt;/span&gt;&lt;span class=&quot;pl-kos&quot;&gt;}&lt;/span&gt;&lt;span class=&quot;pl-kos&quot;&gt;;&lt;/span&gt;&lt;br&gt;&lt;span class=&quot;pl-kos&quot;&gt;[&lt;/span&gt;&lt;span class=&quot;pl-s1&quot;&gt;user&lt;/span&gt;&lt;span class=&quot;pl-kos&quot;&gt;.&lt;/span&gt;&lt;span class=&quot;pl-c1&quot;&gt;name&lt;/span&gt;&lt;span class=&quot;pl-kos&quot;&gt;,&lt;/span&gt; &lt;span class=&quot;pl-s1&quot;&gt;user&lt;/span&gt;&lt;span class=&quot;pl-kos&quot;&gt;.&lt;/span&gt;&lt;span class=&quot;pl-c1&quot;&gt;surname&lt;/span&gt;&lt;span class=&quot;pl-kos&quot;&gt;]&lt;/span&gt; &lt;span class=&quot;pl-c1&quot;&gt;=&lt;/span&gt; &lt;span class=&quot;pl-s1&quot;&gt;strings&lt;/span&gt;&lt;span class=&quot;pl-kos&quot;&gt;;  // &quot;Куда&quot; - наш выбор&lt;/span&gt;&lt;br&gt;&lt;br&gt;&lt;span class=&quot;pl-smi&quot;&gt;console&lt;/span&gt;&lt;span class=&quot;pl-kos&quot;&gt;.&lt;/span&gt;&lt;span class=&quot;pl-en&quot;&gt;log&lt;/span&gt;&lt;span class=&quot;pl-kos&quot;&gt;(&lt;/span&gt;&lt;span class=&quot;pl-s1&quot;&gt;user&lt;/span&gt;&lt;span class=&quot;pl-kos&quot;&gt;)&lt;/span&gt;&lt;span class=&quot;pl-kos&quot;&gt;;&lt;/span&gt;  &lt;span class=&quot;pl-c&quot;&gt;// {name: &#39;Johny&#39;, surname: &#39;Dotsville&#39;}&lt;/span&gt;&lt;/pre&gt;" style="rounded=0;whiteSpace=wrap;html=1;align=left;spacingLeft=5;" parent="1" vertex="1">
          <mxGeometry x="20" y="320" width="445" height="100" as="geometry" />
        </mxCell>
        <mxCell id="4vXi6jlmZL6QnZGHA_IZ-16" value="&lt;pre&gt;&lt;span class=&quot;pl-k&quot;&gt;let&lt;/span&gt; &lt;span class=&quot;pl-s1&quot;&gt;user&lt;/span&gt; &lt;span class=&quot;pl-c1&quot;&gt;=&lt;/span&gt; &lt;span class=&quot;pl-kos&quot;&gt;{&lt;/span&gt;&lt;br/&gt;  &lt;span class=&quot;pl-c1&quot;&gt;name&lt;/span&gt;: &lt;span class=&quot;pl-s&quot;&gt;&quot;Tom&quot;&lt;/span&gt;&lt;span class=&quot;pl-kos&quot;&gt;,&lt;/span&gt;&lt;br/&gt;  &lt;span class=&quot;pl-c1&quot;&gt;surname&lt;/span&gt;: &lt;span class=&quot;pl-s&quot;&gt;&quot;Sawyer&quot;&lt;/span&gt;&lt;span class=&quot;pl-kos&quot;&gt;,&lt;/span&gt;&lt;br/&gt;  &lt;span class=&quot;pl-c1&quot;&gt;age&lt;/span&gt;: &lt;span class=&quot;pl-c1&quot;&gt;14&lt;/span&gt;&lt;span class=&quot;pl-kos&quot;&gt;,&lt;/span&gt;&lt;br/&gt;  &lt;span class=&quot;pl-c1&quot;&gt;state&lt;/span&gt;: &lt;span class=&quot;pl-s&quot;&gt;&quot;Missouri&quot;&lt;/span&gt;&lt;br/&gt;&lt;span class=&quot;pl-kos&quot;&gt;}&lt;/span&gt;&lt;span class=&quot;pl-kos&quot;&gt;;&lt;/span&gt;&lt;br/&gt;&lt;br/&gt;&lt;span class=&quot;pl-k&quot;&gt;for&lt;/span&gt; &lt;span class=&quot;pl-kos&quot;&gt;(&lt;/span&gt;&lt;span class=&quot;pl-k&quot;&gt;let&lt;/span&gt; &lt;span class=&quot;pl-kos&quot;&gt;[&lt;/span&gt;&lt;span class=&quot;pl-s1&quot;&gt;prop&lt;/span&gt;&lt;span class=&quot;pl-kos&quot;&gt;,&lt;/span&gt; &lt;span class=&quot;pl-s1&quot;&gt;value&lt;/span&gt;&lt;span class=&quot;pl-kos&quot;&gt;]&lt;/span&gt; &lt;span class=&quot;pl-k&quot;&gt;of&lt;/span&gt; &lt;span class=&quot;pl-v&quot;&gt;Object&lt;/span&gt;&lt;span class=&quot;pl-kos&quot;&gt;.&lt;/span&gt;&lt;span class=&quot;pl-en&quot;&gt;entries&lt;/span&gt;&lt;span class=&quot;pl-kos&quot;&gt;(&lt;/span&gt;&lt;span class=&quot;pl-s1&quot;&gt;user&lt;/span&gt;&lt;span class=&quot;pl-kos&quot;&gt;)&lt;/span&gt;&lt;span class=&quot;pl-kos&quot;&gt;)&lt;/span&gt; &lt;span class=&quot;pl-kos&quot;&gt;{&lt;/span&gt;&lt;br/&gt;  &lt;span class=&quot;pl-smi&quot;&gt;console&lt;/span&gt;&lt;span class=&quot;pl-kos&quot;&gt;.&lt;/span&gt;&lt;span class=&quot;pl-en&quot;&gt;log&lt;/span&gt;&lt;span class=&quot;pl-kos&quot;&gt;(&lt;/span&gt;&lt;span class=&quot;pl-s1&quot;&gt;prop&lt;/span&gt; &lt;span class=&quot;pl-c1&quot;&gt;+&lt;/span&gt; &lt;span class=&quot;pl-s&quot;&gt;&quot;: &quot;&lt;/span&gt; &lt;span class=&quot;pl-c1&quot;&gt;+&lt;/span&gt; &lt;span class=&quot;pl-s1&quot;&gt;value&lt;/span&gt;&lt;span class=&quot;pl-kos&quot;&gt;)&lt;/span&gt;&lt;span class=&quot;pl-kos&quot;&gt;;&lt;/span&gt;&lt;br/&gt;&lt;span class=&quot;pl-kos&quot;&gt;}&lt;/span&gt;&lt;/pre&gt;" style="rounded=0;whiteSpace=wrap;html=1;align=left;spacingLeft=5;" parent="1" vertex="1">
          <mxGeometry x="20" y="470" width="375" height="160" as="geometry" />
        </mxCell>
        <mxCell id="4vXi6jlmZL6QnZGHA_IZ-17" value="&lt;pre&gt;&lt;span class=&quot;pl-k&quot;&gt;let&lt;/span&gt; &lt;span class=&quot;pl-s1&quot;&gt;users&lt;/span&gt; &lt;span class=&quot;pl-c1&quot;&gt;=&lt;/span&gt; &lt;span class=&quot;pl-k&quot;&gt;new&lt;/span&gt; &lt;span class=&quot;pl-v&quot;&gt;Map&lt;/span&gt;&lt;span class=&quot;pl-kos&quot;&gt;(&lt;/span&gt;&lt;span class=&quot;pl-kos&quot;&gt;[&lt;/span&gt;&lt;br/&gt;  &lt;span class=&quot;pl-kos&quot;&gt;[&lt;/span&gt;&lt;span class=&quot;pl-s&quot;&gt;&quot;tom&quot;&lt;/span&gt;&lt;span class=&quot;pl-kos&quot;&gt;,&lt;/span&gt; &lt;span class=&quot;pl-c1&quot;&gt;6000&lt;/span&gt;&lt;span class=&quot;pl-kos&quot;&gt;]&lt;/span&gt;&lt;span class=&quot;pl-kos&quot;&gt;,&lt;/span&gt;&lt;br/&gt;  &lt;span class=&quot;pl-kos&quot;&gt;[&lt;/span&gt;&lt;span class=&quot;pl-s&quot;&gt;&quot;huck&quot;&lt;/span&gt;&lt;span class=&quot;pl-kos&quot;&gt;,&lt;/span&gt; &lt;span class=&quot;pl-c1&quot;&gt;6000&lt;/span&gt;&lt;span class=&quot;pl-kos&quot;&gt;]&lt;/span&gt;&lt;span class=&quot;pl-kos&quot;&gt;,&lt;/span&gt;&lt;br/&gt;  &lt;span class=&quot;pl-kos&quot;&gt;[&lt;/span&gt;&lt;span class=&quot;pl-s&quot;&gt;&quot;jim&quot;&lt;/span&gt;&lt;span class=&quot;pl-kos&quot;&gt;,&lt;/span&gt; &lt;span class=&quot;pl-c1&quot;&gt;40&lt;/span&gt;&lt;span class=&quot;pl-kos&quot;&gt;]&lt;/span&gt;&lt;br/&gt;&lt;span class=&quot;pl-kos&quot;&gt;]&lt;/span&gt;&lt;span class=&quot;pl-kos&quot;&gt;)&lt;/span&gt;&lt;span class=&quot;pl-kos&quot;&gt;;&lt;/span&gt;&lt;br/&gt;&lt;br/&gt;&lt;span class=&quot;pl-k&quot;&gt;for&lt;/span&gt; &lt;span class=&quot;pl-kos&quot;&gt;(&lt;/span&gt;&lt;span class=&quot;pl-k&quot;&gt;let&lt;/span&gt; &lt;span class=&quot;pl-kos&quot;&gt;[&lt;/span&gt;&lt;span class=&quot;pl-s1&quot;&gt;k&lt;/span&gt;&lt;span class=&quot;pl-kos&quot;&gt;,&lt;/span&gt; &lt;span class=&quot;pl-s1&quot;&gt;v&lt;/span&gt;&lt;span class=&quot;pl-kos&quot;&gt;]&lt;/span&gt; &lt;span class=&quot;pl-k&quot;&gt;of&lt;/span&gt; &lt;span class=&quot;pl-s1&quot;&gt;users&lt;/span&gt;&lt;span class=&quot;pl-kos&quot;&gt;)&lt;/span&gt; &lt;span class=&quot;pl-kos&quot;&gt;{&lt;/span&gt;&lt;br/&gt;  &lt;span class=&quot;pl-smi&quot;&gt;console&lt;/span&gt;&lt;span class=&quot;pl-kos&quot;&gt;.&lt;/span&gt;&lt;span class=&quot;pl-en&quot;&gt;log&lt;/span&gt;&lt;span class=&quot;pl-kos&quot;&gt;(&lt;/span&gt;&lt;span class=&quot;pl-s1&quot;&gt;k&lt;/span&gt; &lt;span class=&quot;pl-c1&quot;&gt;+&lt;/span&gt; &lt;span class=&quot;pl-s&quot;&gt;&quot; &quot;&lt;/span&gt; &lt;span class=&quot;pl-c1&quot;&gt;+&lt;/span&gt; &lt;span class=&quot;pl-s1&quot;&gt;v&lt;/span&gt;&lt;span class=&quot;pl-kos&quot;&gt;)&lt;/span&gt;&lt;span class=&quot;pl-kos&quot;&gt;;&lt;/span&gt;&lt;br/&gt;&lt;span class=&quot;pl-kos&quot;&gt;}&lt;/span&gt;&lt;/pre&gt;" style="rounded=0;whiteSpace=wrap;html=1;align=left;spacingLeft=5;" parent="1" vertex="1">
          <mxGeometry x="20" y="650" width="207.5" height="160" as="geometry" />
        </mxCell>
        <mxCell id="4vXi6jlmZL6QnZGHA_IZ-19" value="" style="endArrow=none;html=1;rounded=0;" parent="1" edge="1">
          <mxGeometry width="50" height="50" relative="1" as="geometry">
            <mxPoint x="1160" y="820" as="sourcePoint" />
            <mxPoint x="1160" y="10" as="targetPoint" />
          </mxGeometry>
        </mxCell>
        <mxCell id="4vXi6jlmZL6QnZGHA_IZ-20" value="&lt;pre&gt;let { a, b, c } = obj;&lt;br&gt;&lt;/pre&gt;" style="rounded=0;whiteSpace=wrap;html=1;align=left;spacingLeft=5;" parent="1" vertex="1">
          <mxGeometry x="635" y="160" width="160" height="40" as="geometry" />
        </mxCell>
        <mxCell id="4vXi6jlmZL6QnZGHA_IZ-22" value="Объекта" style="text;html=1;align=center;verticalAlign=middle;whiteSpace=wrap;rounded=0;fontStyle=1" parent="1" vertex="1">
          <mxGeometry x="635" y="140" width="160" height="20" as="geometry" />
        </mxCell>
        <mxCell id="4vXi6jlmZL6QnZGHA_IZ-23" value="&lt;pre&gt;&lt;span class=&quot;pl-k&quot;&gt;let&lt;/span&gt; &lt;span class=&quot;pl-s1&quot;&gt;user&lt;/span&gt; &lt;span class=&quot;pl-c1&quot;&gt;=&lt;/span&gt; &lt;span class=&quot;pl-kos&quot;&gt;{&lt;/span&gt;&lt;br&gt;  &lt;span class=&quot;pl-c1&quot;&gt;name&lt;/span&gt;: &lt;span class=&quot;pl-s&quot;&gt;&quot;Tom&quot;&lt;/span&gt;&lt;span class=&quot;pl-kos&quot;&gt;,&lt;/span&gt;&lt;br&gt;  &lt;span class=&quot;pl-c1&quot;&gt;age&lt;/span&gt;: &lt;span class=&quot;pl-c1&quot;&gt;14&lt;/span&gt;&lt;span class=&quot;pl-kos&quot;&gt;,&lt;/span&gt;&lt;br&gt;  &lt;span class=&quot;pl-c1&quot;&gt;state&lt;/span&gt;: &lt;span class=&quot;pl-s&quot;&gt;&quot;Missouri&quot;&lt;/span&gt;&lt;br&gt;&lt;span class=&quot;pl-kos&quot;&gt;}&lt;/span&gt;&lt;span class=&quot;pl-kos&quot;&gt;;&lt;/span&gt;&lt;br&gt;&lt;pre&gt;&lt;span class=&quot;pl-c&quot;&gt;// Порядок не важен, главное совпадение имен&lt;/span&gt;&lt;/pre&gt;&lt;span class=&quot;pl-k&quot;&gt;let&lt;/span&gt; &lt;span class=&quot;pl-kos&quot;&gt;{&lt;/span&gt;state&lt;span class=&quot;pl-kos&quot;&gt;,&lt;/span&gt; age&lt;span class=&quot;pl-kos&quot;&gt;,&lt;/span&gt; name&lt;span class=&quot;pl-kos&quot;&gt;}&lt;/span&gt; &lt;span class=&quot;pl-c1&quot;&gt;=&lt;/span&gt; &lt;span class=&quot;pl-s1&quot;&gt;user&lt;/span&gt;&lt;span class=&quot;pl-kos&quot;&gt;;&lt;/span&gt;&lt;/pre&gt;" style="rounded=0;whiteSpace=wrap;html=1;align=left;spacingLeft=5;" parent="1" vertex="1">
          <mxGeometry x="660" y="410" width="300" height="140" as="geometry" />
        </mxCell>
        <mxCell id="4vXi6jlmZL6QnZGHA_IZ-24" value="&lt;pre&gt;&lt;span class=&quot;pl-k&quot;&gt;let&lt;/span&gt; &lt;span class=&quot;pl-s1&quot;&gt;user&lt;/span&gt; &lt;span class=&quot;pl-c1&quot;&gt;=&lt;/span&gt; &lt;span class=&quot;pl-kos&quot;&gt;{&lt;/span&gt;&lt;br/&gt;  &lt;span class=&quot;pl-c1&quot;&gt;name&lt;/span&gt;: &lt;span class=&quot;pl-s&quot;&gt;&quot;Huck&quot;&lt;/span&gt;&lt;span class=&quot;pl-kos&quot;&gt;,&lt;/span&gt;&lt;br/&gt;  &lt;span class=&quot;pl-c1&quot;&gt;age&lt;/span&gt;: &lt;span class=&quot;pl-c1&quot;&gt;15&lt;/span&gt;&lt;span class=&quot;pl-kos&quot;&gt;,&lt;/span&gt;&lt;br/&gt;  &lt;span class=&quot;pl-c1&quot;&gt;state&lt;/span&gt;: &lt;span class=&quot;pl-s&quot;&gt;&quot;Illinois&quot;&lt;/span&gt;&lt;br/&gt;&lt;span class=&quot;pl-kos&quot;&gt;}&lt;/span&gt;&lt;span class=&quot;pl-kos&quot;&gt;;&lt;/span&gt;&lt;br/&gt;&lt;br/&gt;&lt;span class=&quot;pl-k&quot;&gt;let&lt;/span&gt; &lt;span class=&quot;pl-kos&quot;&gt;{&lt;/span&gt;&lt;span class=&quot;pl-c1&quot;&gt;state&lt;/span&gt;: &lt;span class=&quot;pl-s1&quot;&gt;s&lt;/span&gt;&lt;span class=&quot;pl-kos&quot;&gt;,&lt;/span&gt;  &lt;span class=&quot;pl-c&quot;&gt;// &amp;lt;-- Значение св-ва state положить в переменную s&lt;/span&gt;&lt;br/&gt;     &lt;span class=&quot;pl-c1&quot;&gt;age&lt;/span&gt;: &lt;span class=&quot;pl-s1&quot;&gt;a&lt;/span&gt;&lt;span class=&quot;pl-kos&quot;&gt;,&lt;/span&gt;    &lt;span class=&quot;pl-c&quot;&gt;// &amp;lt;-- Значение св-ва age положить в переменную a&lt;/span&gt;&lt;br/&gt;     name&lt;span class=&quot;pl-kos&quot;&gt;,&lt;/span&gt;      &lt;span class=&quot;pl-c&quot;&gt;// &amp;lt;-- Значение св-ва name положить в переменную name&lt;/span&gt;&lt;br/&gt;     &lt;span class=&quot;pl-c1&quot;&gt;address&lt;/span&gt;: &lt;span class=&quot;pl-s1&quot;&gt;adr&lt;/span&gt; &lt;span class=&quot;pl-c1&quot;&gt;=&lt;/span&gt; &lt;span class=&quot;pl-s&quot;&gt;&quot;homeless&quot;&lt;/span&gt;  &lt;span class=&quot;pl-c&quot;&gt;// &amp;lt;-- Значение по умолчанию&lt;/span&gt;&lt;br/&gt;    &lt;span class=&quot;pl-kos&quot;&gt;}&lt;/span&gt; &lt;span class=&quot;pl-c1&quot;&gt;=&lt;/span&gt; &lt;span class=&quot;pl-s1&quot;&gt;user&lt;/span&gt;&lt;span class=&quot;pl-kos&quot;&gt;;&lt;/span&gt;&lt;/pre&gt;" style="rounded=0;whiteSpace=wrap;html=1;align=left;spacingLeft=5;" parent="1" vertex="1">
          <mxGeometry x="660" y="600" width="470" height="180" as="geometry" />
        </mxCell>
        <mxCell id="4vXi6jlmZL6QnZGHA_IZ-25" value="&lt;pre&gt;&lt;span class=&quot;pl-k&quot;&gt;let&lt;/span&gt; &lt;span class=&quot;pl-s1&quot;&gt;user&lt;/span&gt; &lt;span class=&quot;pl-c1&quot;&gt;=&lt;/span&gt; &lt;span class=&quot;pl-kos&quot;&gt;{&lt;/span&gt;&lt;br&gt;  &lt;span class=&quot;pl-c1&quot;&gt;name&lt;/span&gt;: &lt;span class=&quot;pl-s&quot;&gt;&quot;Huck&quot;&lt;/span&gt;&lt;span class=&quot;pl-kos&quot;&gt;,&lt;/span&gt;&lt;br&gt;  &lt;span class=&quot;pl-c1&quot;&gt;age&lt;/span&gt;: &lt;span class=&quot;pl-c1&quot;&gt;15&lt;/span&gt;&lt;span class=&quot;pl-kos&quot;&gt;,&lt;/span&gt;&lt;br&gt;  &lt;span class=&quot;pl-c1&quot;&gt;state&lt;/span&gt;: &lt;span class=&quot;pl-s&quot;&gt;&quot;Illinois&quot;&lt;/span&gt;&lt;br&gt;&lt;span class=&quot;pl-kos&quot;&gt;}&lt;/span&gt;&lt;span class=&quot;pl-kos&quot;&gt;;&lt;/span&gt;&lt;br&gt;&lt;pre&gt;&lt;span class=&quot;pl-c&quot;&gt;// Берем только state&lt;/span&gt;&lt;/pre&gt;&lt;span class=&quot;pl-k&quot;&gt;let&lt;/span&gt; &lt;span class=&quot;pl-kos&quot;&gt;{&lt;/span&gt;state&lt;span class=&quot;pl-kos&quot;&gt;}&lt;/span&gt; &lt;span class=&quot;pl-c1&quot;&gt;=&lt;/span&gt; &lt;span class=&quot;pl-s1&quot;&gt;user&lt;/span&gt;&lt;span class=&quot;pl-kos&quot;&gt;;&lt;/span&gt;&lt;br&gt;&lt;/pre&gt;" style="rounded=0;whiteSpace=wrap;html=1;align=left;spacingLeft=5;" parent="1" vertex="1">
          <mxGeometry x="610" y="240" width="245" height="140" as="geometry" />
        </mxCell>
        <mxCell id="4vXi6jlmZL6QnZGHA_IZ-26" value="&lt;pre&gt;&lt;span class=&quot;pl-k&quot;&gt;let&lt;/span&gt; &lt;span class=&quot;pl-s1&quot;&gt;user&lt;/span&gt; &lt;span class=&quot;pl-c1&quot;&gt;=&lt;/span&gt; &lt;span class=&quot;pl-kos&quot;&gt;{&lt;/span&gt;&lt;br/&gt;  &lt;span class=&quot;pl-c1&quot;&gt;name&lt;/span&gt;: &lt;span class=&quot;pl-s&quot;&gt;&quot;Huck&quot;&lt;/span&gt;&lt;span class=&quot;pl-kos&quot;&gt;,&lt;/span&gt;&lt;br/&gt;  &lt;span class=&quot;pl-c1&quot;&gt;age&lt;/span&gt;: &lt;span class=&quot;pl-c1&quot;&gt;15&lt;/span&gt;&lt;span class=&quot;pl-kos&quot;&gt;,&lt;/span&gt;&lt;br/&gt;  &lt;span class=&quot;pl-c1&quot;&gt;state&lt;/span&gt;: &lt;span class=&quot;pl-s&quot;&gt;&quot;Illinois&quot;&lt;/span&gt;&lt;br/&gt;&lt;span class=&quot;pl-kos&quot;&gt;}&lt;/span&gt;&lt;span class=&quot;pl-kos&quot;&gt;;&lt;/span&gt;&lt;br/&gt;&lt;pre&gt;&lt;span class=&quot;pl-c&quot;&gt;// &amp;lt;-- Переменные объявлены заранее&lt;/span&gt;&lt;/pre&gt;&lt;span class=&quot;pl-k&quot;&gt;let&lt;/span&gt; &lt;span class=&quot;pl-s1&quot;&gt;name&lt;/span&gt;&lt;span class=&quot;pl-kos&quot;&gt;,&lt;/span&gt; &lt;span class=&quot;pl-s1&quot;&gt;age&lt;/span&gt;&lt;span class=&quot;pl-kos&quot;&gt;,&lt;/span&gt; &lt;span class=&quot;pl-s1&quot;&gt;state&lt;/span&gt;&lt;span class=&quot;pl-kos&quot;&gt;;&lt;/span&gt;  &lt;br/&gt;&lt;pre&gt;&lt;span class=&quot;pl-c&quot;&gt;// &amp;lt;-- Берем дополнительно в круглые скобки ()&lt;/span&gt;&lt;/pre&gt;&lt;span class=&quot;pl-kos&quot;&gt;(&lt;/span&gt;&lt;span class=&quot;pl-kos&quot;&gt;{&lt;/span&gt;name&lt;span class=&quot;pl-kos&quot;&gt;,&lt;/span&gt; age&lt;span class=&quot;pl-kos&quot;&gt;,&lt;/span&gt; state&lt;span class=&quot;pl-kos&quot;&gt;}&lt;/span&gt;&lt;span class=&quot;pl-kos&quot;&gt;)&lt;/span&gt; &lt;span class=&quot;pl-c1&quot;&gt;=&lt;/span&gt; &lt;span class=&quot;pl-s1&quot;&gt;user&lt;/span&gt;&lt;span class=&quot;pl-kos&quot;&gt;;&lt;/span&gt;  &lt;/pre&gt;" style="rounded=0;whiteSpace=wrap;html=1;align=left;spacingLeft=5;" parent="1" vertex="1">
          <mxGeometry x="810" y="30" width="340" height="190" as="geometry" />
        </mxCell>
        <mxCell id="4vXi6jlmZL6QnZGHA_IZ-27" value="&lt;pre&gt;&lt;span class=&quot;pl-k&quot;&gt;let&lt;/span&gt; &lt;span class=&quot;pl-s1&quot;&gt;settings&lt;/span&gt; &lt;span class=&quot;pl-c1&quot;&gt;=&lt;/span&gt; &lt;span class=&quot;pl-kos&quot;&gt;{&lt;/span&gt;  &lt;span class=&quot;pl-c&quot;&gt;// &amp;lt;-- Сложный объект&lt;/span&gt;&lt;br&gt;  &lt;span class=&quot;pl-c1&quot;&gt;size&lt;/span&gt;: &lt;span class=&quot;pl-kos&quot;&gt;[&lt;/span&gt;&lt;span class=&quot;pl-c1&quot;&gt;1920&lt;/span&gt;&lt;span class=&quot;pl-kos&quot;&gt;,&lt;/span&gt; &lt;span class=&quot;pl-c1&quot;&gt;1080&lt;/span&gt;&lt;span class=&quot;pl-kos&quot;&gt;]&lt;/span&gt;&lt;span class=&quot;pl-kos&quot;&gt;,&lt;/span&gt;&lt;br&gt;  &lt;span class=&quot;pl-c1&quot;&gt;title&lt;/span&gt;: &lt;span class=&quot;pl-s&quot;&gt;&quot;Мост в Терабитию&quot;&lt;/span&gt;&lt;span class=&quot;pl-kos&quot;&gt;,&lt;/span&gt;&lt;br&gt;  &lt;span class=&quot;pl-c1&quot;&gt;info&lt;/span&gt;: &lt;span class=&quot;pl-kos&quot;&gt;{&lt;/span&gt;&lt;br&gt;    &lt;span class=&quot;pl-c1&quot;&gt;year&lt;/span&gt;: &lt;span class=&quot;pl-c1&quot;&gt;2007&lt;/span&gt;&lt;span class=&quot;pl-kos&quot;&gt;,&lt;/span&gt;&lt;br&gt;    &lt;span class=&quot;pl-c1&quot;&gt;duration&lt;/span&gt;: &lt;span class=&quot;pl-c1&quot;&gt;93&lt;/span&gt;&lt;span class=&quot;pl-kos&quot;&gt;,&lt;/span&gt;&lt;br&gt;    &lt;span class=&quot;pl-c1&quot;&gt;country&lt;/span&gt;: &lt;span class=&quot;pl-s&quot;&gt;&quot;США&quot;&lt;/span&gt;&lt;br&gt;  &lt;span class=&quot;pl-kos&quot;&gt;}&lt;/span&gt;&lt;br&gt;&lt;span class=&quot;pl-kos&quot;&gt;}&lt;/span&gt;&lt;span class=&quot;pl-kos&quot;&gt;;&lt;/span&gt;&lt;br&gt;&lt;br&gt;&lt;span class=&quot;pl-k&quot;&gt;let&lt;/span&gt; &lt;span class=&quot;pl-kos&quot;&gt;{&lt;/span&gt;&lt;br&gt;  &lt;span class=&quot;pl-c1&quot;&gt;size&lt;/span&gt;: &lt;span class=&quot;pl-kos&quot;&gt;[&lt;/span&gt;&lt;span class=&quot;pl-s1&quot;&gt;x&lt;/span&gt;&lt;span class=&quot;pl-kos&quot;&gt;,&lt;/span&gt; &lt;span class=&quot;pl-s1&quot;&gt;y&lt;/span&gt;&lt;span class=&quot;pl-kos&quot;&gt;]&lt;/span&gt;&lt;span class=&quot;pl-kos&quot;&gt;,&lt;/span&gt;&lt;br&gt;  title&lt;span class=&quot;pl-kos&quot;&gt;,&lt;/span&gt;&lt;br&gt;  &lt;span class=&quot;pl-c1&quot;&gt;info&lt;/span&gt;: &lt;span class=&quot;pl-kos&quot;&gt;{&lt;/span&gt;&lt;br&gt;    &lt;span class=&quot;pl-c1&quot;&gt;year&lt;/span&gt;: &lt;span class=&quot;pl-s1&quot;&gt;g&lt;/span&gt;&lt;span class=&quot;pl-kos&quot;&gt;,&lt;/span&gt;&lt;br&gt;    &lt;span class=&quot;pl-c1&quot;&gt;duration&lt;/span&gt;: &lt;span class=&quot;pl-s1&quot;&gt;d&lt;/span&gt;&lt;span class=&quot;pl-kos&quot;&gt;,&lt;/span&gt;&lt;br&gt;    country&lt;br&gt;  &lt;span class=&quot;pl-kos&quot;&gt;}&lt;/span&gt;&lt;br&gt;&lt;span class=&quot;pl-kos&quot;&gt;}&lt;/span&gt; &lt;span class=&quot;pl-c1&quot;&gt;=&lt;/span&gt; &lt;span class=&quot;pl-s1&quot;&gt;settings&lt;/span&gt;&lt;span class=&quot;pl-kos&quot;&gt;;&lt;/span&gt;&lt;/pre&gt;" style="rounded=0;whiteSpace=wrap;html=1;align=left;spacingLeft=5;" parent="1" vertex="1">
          <mxGeometry x="640" y="880" width="270" height="290" as="geometry" />
        </mxCell>
        <mxCell id="ST1xj_VvGFAQejWcp1LJ-1" value="Пара полезных в реальности примеров" style="text;html=1;align=center;verticalAlign=middle;whiteSpace=wrap;rounded=0;fontStyle=1;fontSize=14;" vertex="1" parent="1">
          <mxGeometry y="440" width="570" height="30" as="geometry" />
        </mxCell>
      </root>
    </mxGraphModel>
  </diagram>
</mxfile>
